<svg width="26" height="26" viewBox="0 0 26 26" fill="none" xmlns="http://www.w3.org/2000/svg">
<path d="M21.6533 3.77983C20.5022 2.57651 19.1312 1.62256 17.6202 0.973614C16.1092 0.324669 14.4886 -0.00627381 12.8527 9.00654e-05C5.99847 9.00654e-05 0.412394 5.78182 0.406116 12.8798C0.406116 15.1532 0.980576 17.3648 2.06514 19.3229L0.305664 26L6.90411 24.2093C8.7287 25.2399 10.7743 25.7791 12.8527 25.7774H12.859C19.7149 25.7774 25.2994 19.9956 25.3057 12.8912C25.3071 11.198 24.9849 9.52132 24.3578 7.95759C23.7307 6.39387 22.8126 4.97403 21.6533 3.77983ZM12.8527 23.5966C10.9994 23.5951 9.18032 23.0788 7.5853 22.1016L7.2086 21.8676L3.29411 22.9304L4.33944 18.9768L4.09459 18.5689C3.05837 16.8632 2.51035 14.8883 2.51404 12.8733C2.51404 6.98107 7.15524 2.17433 12.859 2.17433C14.2179 2.17181 15.5637 2.44778 16.8191 2.98633C18.0744 3.52488 19.2143 4.31536 20.1732 5.3122C21.1352 6.30531 21.8978 7.4857 22.4172 8.78534C22.9365 10.085 23.2024 11.4782 23.1993 12.8847C23.193 18.798 18.5518 23.5966 12.8527 23.5966ZM18.5267 15.5789C18.2175 15.418 16.6903 14.6397 16.4031 14.5292C16.1174 14.4235 15.9087 14.3683 15.7046 14.69C15.4959 15.0102 14.8995 15.7398 14.7205 15.9494C14.5416 16.1655 14.3564 16.1899 14.0456 16.0307C13.7364 15.8682 12.7335 15.5302 11.5469 14.43C10.6208 13.5769 10.0009 12.5207 9.81564 12.2005C9.63671 11.8788 9.79838 11.7065 9.95377 11.5457C10.0903 11.4027 10.263 11.1687 10.4184 10.9834C10.5753 10.7982 10.6271 10.6617 10.7291 10.4472C10.8312 10.2294 10.7825 10.0442 10.7056 9.88331C10.6271 9.72243 10.0071 8.13481 9.74501 7.49456C9.49388 6.86244 9.23804 6.95019 9.04656 6.94207C8.86763 6.93069 8.65888 6.93069 8.45012 6.93069C8.2925 6.93484 8.1374 6.97264 7.99453 7.0417C7.85166 7.11076 7.7241 7.20961 7.61983 7.33206C7.33417 7.65381 6.53526 8.43219 6.53526 10.0198C6.53526 11.6074 7.64965 13.1333 7.8066 13.3494C7.96042 13.5655 9.99457 16.8139 13.1164 18.2114C13.8541 18.5445 14.4349 18.7411 14.8885 18.8906C15.634 19.1376 16.3074 19.1003 16.8441 19.0206C17.4406 18.9264 18.6821 18.2407 18.9442 17.4883C19.2016 16.7343 19.2016 16.0908 19.1232 15.9559C19.0462 15.8194 18.8375 15.7398 18.5267 15.5789Z" fill="#25D366"/>
</svg>
